<svg width="161" height="37" fill="none" xmlns="http://www.w3.org/2000/svg"><path fill-rule="evenodd" clip-rule="evenodd" d="M25.998.872 10.673 13.45 26.12 25.875 25.998.872Zm-10.55 12.554 7.53-6.222.06 12.37-7.59-6.148Z" fill="#2C3033"/><path fill-rule="evenodd" clip-rule="evenodd" d="m0 1 .123 25.003 15.325-12.577L0 1Zm3.082 6.301 7.59 6.148-7.53 6.222-.06-12.37ZM38.572 22.392l-.089-18.16 4.112-.02.058 11.843L52.41 4.164l3.45-.017.088 18.16-4.112.02-.058-11.843-9.624 11.89-3.582.018ZM60.989 22.282l-.09-18.16 4.112-.02.037 7.37 9.152-.046-.036-7.369 3.979-.02.089 18.16-3.98.02-.035-7.238-9.152.045.035 7.238-4.111.02ZM92.2 3.574c2.123-.01 3.982.375 5.71 1.288l.019 3.685c-1.33-.915-3.19-1.432-5.18-1.423-3.183.016-6.491 1.743-6.47 5.954.02 4.08 3.212 5.906 6.528 5.89 1.99-.01 3.977-.546 5.3-1.342l.017 3.684c-1.72.93-3.707 1.334-6.095 1.346-4.775.024-9.83-2.978-9.862-9.426-.032-6.58 5.259-9.633 10.034-9.656ZM102.24 22.08l-.089-18.16 3.979-.02.059 11.843 9.757-11.89 3.449-.018.089 18.16-3.98.02-.058-11.844-9.757 11.892-3.449.017ZM129.034 21.948l-.071-14.475-6.367.031-.019-3.816 16.713-.082.018 3.553-6.234.03.071 14.607-4.111.152ZM142.563 21.881l-.089-18.16 4.112-.02.058 11.844 9.625-11.89 3.581-.019.09 18.16-4.112.02-.058-11.843-9.758 11.891-3.449.017ZM42.052 28.691l1.594.387.005 1.053c-.4-.261-.93-.39-1.329-.388-1.06.005-1.987.536-1.98 1.72.004 1.053.936 1.575 1.864 1.57.53-.002 1.061-.005 1.457-.402l.005 1.053c-.529.266-1.059.4-1.722.403-1.326.007-2.657-.776-2.666-2.619-.009-1.842 1.314-2.638 2.64-2.644M46.057 33.804l-.02-3.948-1.724.009-.005-1.053 4.642-.023.005 1.053-1.724.009.02 3.947-1.194.006ZM52.536 29.693c-.796.004-1.324.533-1.587 1.06l.007 1.316c.268.525.8.918 1.596.914.928-.005 1.588-.666 1.584-1.587-.005-1.053-.672-1.708-1.6-1.703Zm.26-1.054c1.459-.007 2.526 1.303 2.533 2.62.008 1.578-1.048 2.636-2.64 2.644-.796.004-1.328-.256-1.727-.65l.014 2.896-1.194.005-.036-7.369 1.06-.005.005.79c.396-.397 1.056-.927 1.985-.931ZM58.903 29.662c-1.062.005-1.722.666-1.716 1.719.005 1.053.67 1.576 1.732 1.57.928-.004 1.588-.665 1.584-1.587-.005-.92-.672-1.707-1.6-1.702Zm-.006-1.053c1.327-.007 2.658.908 2.666 2.619.01 1.842-1.313 2.638-2.64 2.645-1.459.007-2.79-.776-2.798-2.619-.009-1.71 1.313-2.638 2.64-2.645M62.77 33.722l-.026-5 1.062-.006.016 3.29 2.77-3.303.928-.005.024 5-1.194.006-.016-3.29-2.636 3.303-.929.005ZM70.197 33.686l-.02-3.948-1.724.008-.005-1.052 4.643-.023.005 1.053-1.725.008.02 3.948-1.194.006ZM76.146 29.577c-.796.004-1.457.402-1.453 1.323l2.653-.013c.13-.527-.006-1.316-1.333-1.31h.133Zm-.138-1.052c2.123-.01 2.794 1.697 2.536 3.146l-3.98.02c.27.919 1.068 1.31 1.997 1.305.663-.003 1.325-.27 1.722-.403l.005.921c-.53.266-1.192.4-1.855.404-1.592.008-2.923-.907-2.931-2.617-.01-1.843 1.313-2.639 2.64-2.645M79.748 33.902l-.663-.129-.005-.92.265-.002c.929-.005 1.186-1.585 1.306-4.217l3.847-.02.025 5.133-1.194.006-.02-4.211-1.725.008c.012 2.369-.51 4.214-1.836 4.22M87.039 32.813l1.193-.006c.664-.003 1.06-.268 1.058-.794-.003-.527-.402-.788-1.065-.785l-1.194.006.008 1.58Zm-1.057.927-.025-5.133 1.06-.005.01 1.711 1.326-.006c1.326-.007 2.126.779 2.13 1.7.005.92-.787 1.714-1.98 1.72l-2.654.013h.133ZM91.42 33.581l-.025-5 1.194-.006.01 1.974 2.52-.012-.01-1.974 1.061-.005.025 5-1.061.005-.01-1.974-2.52.013.01 1.974-1.194.005ZM98.443 32.1c.002.526.401.787.932.784.53-.002 1.061-.136 1.456-.533l-.004-.921-1.061.005c-.663.003-1.327.006-1.323.796v-.132Zm3.983.77.265-.002.003.658-.662.135c-.531.002-.796.004-1.064-.521-.529.397-1.058.663-1.854.667-.928.004-1.86-.517-1.865-1.57-.006-1.316 1.319-1.717 2.247-1.722l1.327.125-.001-.131c-.003-.658-.403-1.051-1.331-1.047-.663.004-1.326.138-1.855.404l-.005-1.052c.397-.134 1.192-.401 1.987-.405 1.459-.007 2.392.778 2.399 2.225l.009 1.843c.001.263.134.394.4.392ZM105.6 31.012l1.327-.007-.008-1.447-1.326.006c-.663.003-1.06.268-1.057.795.002.395.401.656.931.653h.133Zm-2.507 2.644 1.317-1.849c-.664-.26-1.065-.784-1.069-1.574-.004-.921.655-1.714 1.982-1.72l2.652-.013.026 5.132-1.194.006-.009-1.711-1.061.005-1.318 1.717-1.326.007ZM111.847 33.481l-.025-5 1.194-.006.009 1.973.796-.003 1.45-1.982 1.326-.006-1.844 2.641 2.133 2.227-1.326.006-1.734-1.965-.796.004.01 1.973-1.193.138ZM119.785 29.363c-1.061.005-1.588.665-1.583 1.718.005 1.053.538 1.576 1.599 1.571.929-.004 1.589-.665 1.584-1.587-.004-.92-.671-1.707-1.6-1.703Zm-.005-1.053c1.327-.007 2.657.908 2.666 2.619.009 1.842-1.314 2.638-2.64 2.645-1.459.007-2.789-.776-2.798-2.619-.009-1.71 1.313-2.638 2.639-2.644M123.652 33.423l-.025-5 1.061-.006 1.738 2.623 1.844-2.64 1.061-.006.024 5-1.061.006-.017-3.421-1.448 2.244-.663.003-1.47-2.23.017 3.422-1.061.005ZM130.815 33.388l-.025-5 4.775-.024.025 5-1.061.006-.02-3.948-2.653.013.02 3.948-1.061.005ZM137.837 31.906c.003.526.402.788.933.785.53-.003 1.06-.137 1.456-.534l-.004-.92-1.061.005c-.664.003-1.327.006-1.323.796l-.001-.132Zm3.983.77.266-.001.003.658-.795.135c-.398.002-.796.004-.931-.522a3.278 3.278 0 0 1-1.987.668c-.928.005-1.727-.518-1.732-1.57-.006-1.316 1.186-1.717 2.247-1.722l1.327.125-.001-.132c-.003-.658-.403-1.05-1.331-1.046-.796.004-1.326.138-1.855.404l-.006-1.053c.398-.133 1.192-.4 1.988-.404 1.326-.007 2.391.777 2.399 2.225l.009 1.842c.001.263.002.395.267.394M142.885 33.329l-.025-5 1.194-.006.01 1.973 2.52-.012-.01-1.974 1.194-.006.025 5-1.194.007-.01-1.974-2.52.012.01 1.974-1.194.006ZM149.119 33.298l-.024-5 1.193-.006.016 3.29 2.637-3.303 1.061-.006.025 5-1.194.007-.016-3.29-2.637 3.303-1.061.005ZM157.33 30.757l1.327-.006-.007-1.448-1.327.007c-.53.002-.927.268-.924.794.002.395.401.656.931.653Zm-2.374 2.644 1.317-1.849c-.664-.26-1.065-.784-1.069-1.574-.004-.921.655-1.714 1.982-1.72l2.652-.013.026 5.132-1.194.006-.009-1.711-1.193.006-1.186 1.716-1.326.007Z" fill="#2C3033"/></svg>