<svg width="124" height="76" fill="none" xmlns="http://www.w3.org/2000/svg"><path d="M83.075 18.572v8.831H96.55c0 .046-.045.046-.045.046-2.178 5.917-7.44 9.741-13.475 9.741-7.804 0-14.156-6.373-14.156-14.202 0-7.83 6.352-14.203 14.156-14.203 4.038 0 7.849 1.73 10.526 4.735l6.579-5.873C95.825 2.777 89.609 0 83.075 0c-8.802 0-16.47 5.007-20.326 12.336 1.588 3.323 2.45 7.01 2.45 10.925 0 3.824-.862 7.465-2.36 10.697 3.902 7.192 11.48 12.109 20.236 12.109 9.755 0 18.285-6.1 21.733-15.568.998-2.823 1.089-6.737 1.089-7.511v-4.416H83.075ZM39.882 46.067c-12.659 0-22.958-10.334-22.958-23.034S27.223 0 39.882 0c6.533 0 12.749 2.777 17.105 7.693l-6.58 5.872a14.154 14.154 0 0 0-10.525-4.734c-7.804 0-14.156 6.373-14.156 14.202 0 7.83 6.352 14.203 14.156 14.203 6.034 0 11.297-3.824 13.475-9.742 0-.045.045-.045.045-.045h-13.52v-8.831h22.821v4.415c0 .729-.045 4.689-1.089 7.511-3.448 9.423-11.977 15.523-21.732 15.523ZM0 74.79V56.217h13.566v4.188H4.764V74.79H0ZM16.152 74.79V56.217h9.301c4.175 0 6.443 2.823 6.443 6.191 0 3.323-2.268 6.145-6.443 6.145h-4.491v6.237h-4.81Zm10.844-12.382c0-1.274-.953-2.003-2.223-2.003h-3.857v4.006h3.857c1.27-.045 2.223-.774 2.223-2.003ZM44.555 74.79l-.908-2.686h-7.304l-.908 2.686h-5.444l6.987-18.573h5.989l6.987 18.573h-5.4Zm-4.583-13.838-2.359 6.964h4.719l-2.36-6.964ZM63.792 74.79v-7.466h-7.668v7.466H51.36V56.217h4.764v6.92h7.668v-6.92h4.764V74.79h-4.764ZM71.37 74.79V56.217h13.565v4.188h-8.802v2.914h8.62v4.188h-8.62v3.14h8.802v4.188L71.37 74.79ZM87.25 70.875c1.723 0 2.858-1.001 3.357-5.28l1.134-9.423h13.793v18.572h-4.764V60.36h-4.719l-.68 5.599c-.908 7.51-4.038 9.15-8.122 9.15v-4.234ZM113.065 56.218v6.236h4.492c4.174 0 6.443 2.822 6.443 6.145 0 3.369-2.269 6.19-6.443 6.19h-9.301V56.218h4.809Zm0 10.424v4.005h3.857c1.27 0 2.223-.728 2.223-2.002 0-1.23-.953-1.958-2.223-1.958l-3.857-.045Z" fill="#2C2F32"/></svg>