<svg width="10" height="11" fill="none" xmlns="http://www.w3.org/2000/svg"><path d="M2.4.5C1.087.5.6.934.6 2.1v6.6c0 .272.08.468.2.613V9.9c0 .33.27.6.6.6h.8c.33 0 .6-.27.6-.6v-.2h4.4v.2c0 .33.27.6.6.6h.8c.33 0 .6-.27.6-.6v-.588c.12-.144.2-.34.2-.612V2.3C9.4 1.429 9.292.5 8 .5H2.4Zm.6.8h4.2c.11 0 .2.09.2.2v.4a.2.2 0 0 1-.2.2H3a.2.2 0 0 1-.2-.2v-.4c0-.11.09-.2.2-.2Zm-.8 1.4h5.6c.4 0 .6.2.6.6v2.4c0 .4-.39.587-.6.587L2.2 6.3c-.4 0-.6-.2-.6-.6V3.3c0-.4.2-.6.6-.6Zm-1.8.2a.4.4 0 0 0-.4.4v1.6c0 .22.18.4.4.4V2.9Zm9.2 0v2.4a.4.4 0 0 0 .4-.4V3.3a.4.4 0 0 0-.4-.4ZM2.3 7.3a.7.7 0 1 1 0 1.4.7.7 0 0 1 0-1.4Zm5.4 0a.7.7 0 1 1 0 1.4.7.7 0 0 1 0-1.4Z" fill="#666"/></svg>