<svg width="50" height="50" viewBox="0 0 50 50" fill="none" xmlns="http://www.w3.org/2000/svg">
<path d="M21.2249 35H19.1183L28.7988 15H30.9053L21.2249 35ZM21.9586 17.2195C22.7475 17.9187 23.142 18.8943 23.142 20.1463C23.142 21.3984 22.7475 22.3821 21.9586 23.0976C21.1854 23.7967 20.2308 24.1463 19.0947 24.1463C17.9428 24.1463 16.9724 23.7967 16.1834 23.0976C15.3945 22.3821 15 21.3984 15 20.1463C15 18.8943 15.3945 17.9187 16.1834 17.2195C16.9724 16.5041 17.9428 16.1463 19.0947 16.1463C20.2308 16.1463 21.1854 16.5041 21.9586 17.2195ZM17.6509 18.7805C17.3353 19.1382 17.1775 19.5935 17.1775 20.1463C17.1775 20.6992 17.3353 21.1626 17.6509 21.5366C17.9822 21.8943 18.4556 22.0732 19.071 22.0732C19.6706 22.0732 20.1282 21.8943 20.4438 21.5366C20.7594 21.1626 20.9172 20.6992 20.9172 20.1463C20.9172 19.5935 20.7594 19.1382 20.4438 18.7805C20.1282 18.4065 19.6706 18.2195 19.071 18.2195C18.4556 18.2195 17.9822 18.4065 17.6509 18.7805ZM33.8166 26.9268C34.6055 27.626 35 28.6016 35 29.8537C35 31.1057 34.6055 32.0894 33.8166 32.8049C33.0434 33.5041 32.0888 33.8537 30.9527 33.8537C29.8008 33.8537 28.8304 33.5041 28.0414 32.8049C27.2525 32.0894 26.858 31.1057 26.858 29.8537C26.858 28.6016 27.2525 27.626 28.0414 26.9268C28.8304 26.2114 29.8008 25.8537 30.9527 25.8537C32.0888 25.8537 33.0434 26.2114 33.8166 26.9268ZM29.5325 28.4878C29.217 28.8455 29.0592 29.3008 29.0592 29.8537C29.0592 30.4065 29.217 30.8699 29.5325 31.2439C29.8639 31.6016 30.3373 31.7805 30.9527 31.7805C31.5523 31.7805 32.0099 31.6016 32.3254 31.2439C32.641 30.8699 32.7988 30.4065 32.7988 29.8537C32.7988 29.3008 32.641 28.8455 32.3254 28.4878C32.0099 28.1138 31.5523 27.9268 30.9527 27.9268C30.3373 27.9268 29.8639 28.1138 29.5325 28.4878Z" fill="white"/>
<path d="M6 25.3208C6 10.8292 10.8188 6 25.2708 6C39.7229 6 44.5417 10.8292 44.5417 25.3208C44.5417 39.8125 39.7229 44.6417 25.2708 44.6417C10.8188 44.6417 6 39.8125 6 25.3208Z" stroke="white" stroke-width="3" stroke-linecap="round" stroke-linejoin="round"/>
</svg>
