<svg width="177" height="62" fill="none" xmlns="http://www.w3.org/2000/svg"><path d="M13.153 57.148v4.733h.671l-.008-4.146h2.453v-.587h-3.116ZM25.347 59.586a1.088 1.088 0 0 0 .256-1.227 1.086 1.086 0 0 0-.256-.362 1.524 1.524 0 0 0-.983-.27h-1.19v2.12h1.158c.349.026.696-.07.983-.27l.032.009Zm.463-2.01a1.659 1.659 0 0 1 .375 1.838 1.66 1.66 0 0 1-.375.545 2.223 2.223 0 0 1-1.454.437h-1.183v1.469h-.679V57.1h1.862a2.223 2.223 0 0 1 1.454.437M36.558 57.148 34.44 61.07c-.14.275-.343.514-.591.699-.218.15-.478.23-.743.23a1.608 1.608 0 0 1-.64-.143l.176-.54c.144.052.295.082.448.087a.85.85 0 0 0 .743-.476l.112-.167-1.918-3.59h.735l1.542 3.002 1.599-3.002.655-.023ZM42.703 57.148v4.733h.671v-4.146h2.765v4.146h.663v-4.733h-4.1ZM53.73 57.148v4.733h.671v-4.146h2.765v4.146h.671v-4.733H53.73ZM66.587 57.83l1.031 2.328h-2.053l1.022-2.327Zm-.327-.682-2.158 4.765h.695l.528-1.184h2.533l.52 1.184h.718l-2.165-4.765h-.671ZM85.805 57.148l-1.494 2.057h-1.007v-2.057h-.67v4.733h.67V59.8h.991l1.55 2.08h.776l-1.79-2.446 1.702-2.287h-.728ZM95.834 61.07c.274-.155.503-.38.663-.65a1.919 1.919 0 0 0 0-1.859 1.816 1.816 0 0 0-.663-.659 1.95 1.95 0 0 0-.943-.23 1.999 1.999 0 0 0-.951.23 1.75 1.75 0 0 0-.664.66 1.868 1.868 0 0 0 0 1.858c.158.273.387.498.664.65.29.161.618.243.95.239.33.005.656-.077.944-.238Zm-2.246.525a2.302 2.302 0 0 1-.895-.842 2.456 2.456 0 0 1 0-2.478c.213-.367.526-.668.903-.865.4-.216.848-.325 1.303-.318a2.6 2.6 0 0 1 1.294.318c.377.197.69.498.903.865a2.506 2.506 0 0 1 0 2.478 2.304 2.304 0 0 1-.903.866 2.693 2.693 0 0 1-1.294.317 2.747 2.747 0 0 1-1.303-.317M108.467 57.148l-1.957 3.327-1.99-3.327h-.559v4.733h.655v-3.43l1.718 2.85h.311l1.726-2.867.008 3.447h.648v-4.733h-.56ZM115.954 57.148v4.733h.68v-4.146h2.756v4.146h.672v-4.733h-4.108ZM128.82 57.83l1.023 2.328h-2.054l1.031-2.327Zm-.336-.682-2.157 4.765h.727l.519-1.184h2.533l.528 1.184h.711l-2.166-4.765h-.695ZM141.006 57.148v2.033h-2.733v-2.033h-.687v4.733h.687v-2.113h2.733v2.113h.679v-4.733h-.679ZM152.105 57.148l-2.821 3.653v-3.653h-.671v4.733h.623l2.829-3.645v3.645h.663v-4.733h-.623ZM160.839 56.575a.833.833 0 0 1-.304-.69h.48a.516.516 0 0 0 .045.229.506.506 0 0 0 .147.184c.144.1.318.15.495.142a.801.801 0 0 0 .511-.135.477.477 0 0 0 .192-.413h.48a.86.86 0 0 1-.312.683c-.247.18-.55.267-.855.247a1.389 1.389 0 0 1-.863-.239l-.016-.008Zm-1.167.58h.672v3.653l2.82-3.653h.648v4.765h-.664v-3.645l-2.868 3.59h-.624l.016-4.71Z" fill="#2C3033"/><path opacity=".72" d="M169.277 8.871h-7.647l-4.395-6.6 12.042 6.6Z" fill="#2C3033"/><path d="M161.63 8.87h7.647L176.03 0l-14.4 8.87ZM37.453 37.603 34.84 18.24h-2.19l-2.652 19.362h7.455Zm.631 4.392h-8.686l-1.134 8.338h-4.579l4.978-36.912h10.109l5.05 36.92h-4.61l-1.128-8.346ZM59.276 20.116a2.119 2.119 0 0 0-.416-1.31 1.692 1.692 0 0 0-1.478-.565h-4.483v14.383h4.483c.485.017.963-.125 1.358-.405a1.78 1.78 0 0 0 .536-1.478V20.116ZM64.19 30.74a8.016 8.016 0 0 1-.535 3.106 5.193 5.193 0 0 1-1.479 2.064c-.64.53-1.382.925-2.181 1.16a8.727 8.727 0 0 1-2.613.381h-4.483v12.881h-4.85V13.421h9.333a8.155 8.155 0 0 1 3.124.532 5.794 5.794 0 0 1 2.11 1.437 5.636 5.636 0 0 1 1.199 2.137c.257.841.383 1.717.375 2.597V30.74ZM81.035 37.937h4.858v6.06a8.67 8.67 0 0 1-.383 2.604 5.766 5.766 0 0 1-1.167 2.129 5.34 5.34 0 0 1-2.078 1.445 8.157 8.157 0 0 1-3.156.572h-3.66a8.107 8.107 0 0 1-3.116-.532 5.434 5.434 0 0 1-2.086-1.446 5.884 5.884 0 0 1-1.166-2.128 8.932 8.932 0 0 1-.376-2.605V19.775a8.932 8.932 0 0 1 .376-2.605c.253-.8.675-1.536 1.238-2.16a5.522 5.522 0 0 1 2.086-1.446 8.26 8.26 0 0 1 3.116-.532h3.588a8.31 8.31 0 0 1 3.125.532c.797.312 1.509.808 2.077 1.446.536.62.933 1.345 1.167 2.128.26.844.389 1.722.383 2.605v5.766h-4.858v-5.734a2.084 2.084 0 0 0-.44-1.319 1.74 1.74 0 0 0-1.454-.564h-3.66a1.735 1.735 0 0 0-1.446.564 2.08 2.08 0 0 0-.44 1.319v24.221c-.01.477.145.943.44 1.319a1.728 1.728 0 0 0 1.446.564h3.66a1.752 1.752 0 0 0 1.455-.564c.294-.376.45-.842.439-1.319l.032-6.059ZM109.985 13.414v4.82h-8.006v32.092H97.12V18.234h-8.014v-4.82h20.879ZM124.872 20.116a2.168 2.168 0 0 0-.407-1.31 1.707 1.707 0 0 0-1.486-.565h-4.475v14.383h4.475a2.19 2.19 0 0 0 1.358-.405 1.748 1.748 0 0 0 .535-1.477V20.115Zm4.923 10.625a8.172 8.172 0 0 1-.536 3.106 5.206 5.206 0 0 1-1.486 2.064 6.157 6.157 0 0 1-2.174 1.16 8.84 8.84 0 0 1-2.62.381h-4.475v12.881h-4.859V13.421h9.334a8.158 8.158 0 0 1 3.124.532 5.72 5.72 0 0 1 2.109 1.437 5.54 5.54 0 0 1 1.199 2.137c.26.84.389 1.717.384 2.597V30.74ZM144.81 45.879a1.736 1.736 0 0 0 1.446-.564c.295-.377.45-.842.439-1.319V19.775a2.083 2.083 0 0 0-.439-1.319 1.72 1.72 0 0 0-1.446-.564h-3.724a1.738 1.738 0 0 0-1.486.564 2.201 2.201 0 0 0-.408 1.319v24.221c-.01.472.133.934.408 1.319a1.72 1.72 0 0 0 1.486.564h3.724Zm0-32.847a8.293 8.293 0 0 1 3.116.532 5.525 5.525 0 0 1 2.086 1.446c.53.623.927 1.347 1.166 2.128.254.845.38 1.723.376 2.605v24.253a8.91 8.91 0 0 1-.376 2.605 5.951 5.951 0 0 1-1.166 2.129 5.436 5.436 0 0 1-2.086 1.445 8.295 8.295 0 0 1-3.116.532h-3.724a8.316 8.316 0 0 1-3.125-.532 5.34 5.34 0 0 1-2.077-1.445 5.693 5.693 0 0 1-1.167-2.129 8.648 8.648 0 0 1-.383-2.605V19.775a8.648 8.648 0 0 1 .383-2.605 5.763 5.763 0 0 1 1.167-2.129 5.429 5.429 0 0 1 2.077-1.445 8.316 8.316 0 0 1 3.125-.532l3.724-.032ZM168.774 50.326V29.273l-7.192 7.203v13.85h-4.858V13.414h4.858v17.233l7.192-7.457v-9.776h4.858v36.912h-4.858ZM14.112 13.42a8.5 8.5 0 0 0-5.714 2.202 8.399 8.399 0 0 0-2.725 5.454L2.877 45.514H0v4.67h20.169V13.42h-6.057Zm1.214 32.093H7.727l3.029-24.405a3.17 3.17 0 0 1 1.042-2.043 3.207 3.207 0 0 1 2.154-.816h1.39l-.016 27.264Z" fill="#2C3033"/></svg>