<svg width="50" height="50" viewBox="0 0 50 50" fill="none" xmlns="http://www.w3.org/2000/svg">
<path fill-rule="evenodd" clip-rule="evenodd" d="M25.0083 4.16666C20.9916 4.16666 17.1958 5.30207 14.2666 6.57916C11.3791 7.83957 9.1416 9.32082 8.28952 10.175C7.76444 10.678 7.39246 11.3194 7.2166 12.025C7.03327 12.7292 6.98744 13.5854 6.98119 14.6521C6.97494 15.5271 6.99369 16.6521 7.02077 18.1042L7.0416 19.25C7.07494 21.2812 7.11244 23.8958 7.11244 27.2917C7.11244 34.6 10.1812 39.6687 13.9666 42.8854C17.6874 46.0437 22.1229 47.4312 25.0083 47.4312C27.8937 47.4312 32.3291 46.0437 36.0499 42.8833C39.8354 39.6687 42.9041 34.6 42.9041 27.2917C42.9035 24.2289 42.9341 21.1663 42.9958 18.1042V18.0979C43.0208 16.65 43.0416 15.5271 43.0354 14.6521C43.027 13.5854 42.9812 12.7292 42.7999 12.0271C42.6249 11.321 42.2537 10.6789 41.7291 10.175C40.8749 9.32082 38.6374 7.83957 35.7499 6.57916C32.8187 5.30207 29.0208 4.16666 25.0083 4.16666ZM10.4999 12.3833C10.9583 11.925 12.7916 10.6333 15.5145 9.44582C18.1958 8.27291 21.5541 7.29166 25.0083 7.29166C28.4624 7.29166 31.8208 8.27499 34.4999 9.44374C37.2249 10.6312 39.0604 11.925 39.5187 12.3833C39.6854 12.55 39.727 12.6271 39.7749 12.8083C39.8499 13.1 39.902 13.6083 39.9104 14.675C39.9166 15.5062 39.8979 16.575 39.8708 18.0167L39.8499 19.1958C39.8145 21.2375 39.777 23.8708 39.777 27.2917C39.777 33.6187 37.1645 37.8375 34.027 40.5021C30.8229 43.2229 27.0916 44.3062 25.0062 44.3062C22.9229 44.3062 19.1937 43.2229 15.9895 40.5021C12.852 37.8375 10.2374 33.6187 10.2374 27.2917C10.2374 23.8708 10.1999 21.2375 10.1645 19.1958L10.1437 18.025C10.1184 16.9085 10.1059 15.7918 10.1062 14.675C10.1124 13.6083 10.1666 13.1 10.2416 12.8083C10.2779 12.6418 10.3689 12.4922 10.4999 12.3833ZM32.9062 21.9896C33.0597 21.8465 33.1828 21.674 33.2682 21.4824C33.3536 21.2907 33.3996 21.0838 33.4033 20.874C33.407 20.6642 33.3684 20.4558 33.2898 20.2612C33.2112 20.0667 33.0942 19.8899 32.9458 19.7416C32.7975 19.5932 32.6207 19.4762 32.4262 19.3976C32.2316 19.3191 32.0232 19.2805 31.8134 19.2842C31.6036 19.2879 31.3967 19.3338 31.2051 19.4192C31.0134 19.5046 30.8409 19.6277 30.6979 19.7812L23.5041 26.9771L20.5812 24.05C20.2883 23.7566 19.8909 23.5915 19.4764 23.5912C19.0619 23.5908 18.6642 23.7551 18.3708 24.0479C18.0774 24.3407 17.9123 24.7381 17.9119 25.1527C17.9115 25.5672 18.0758 25.9649 18.3687 26.2583L22.3979 30.2917C22.6908 30.5843 23.088 30.7486 23.502 30.7486C23.9161 30.7486 24.3132 30.5843 24.6062 30.2917L32.9062 21.9896Z" fill="white"/>
</svg>
